<svg xmlns="http://www.w3.org/2000/svg" viewBox="0 0 60 120" fill="none">
  <!-- Leaves (taller, more prominent) -->
  <path d="M30 18 Q20 -10 12 -15 Q18 -6 24 10" fill="#4CAF50" stroke="#2D8C3E" stroke-width="1.5"/>
  <path d="M28 16 Q22 -12 16 -18 Q22 -8 26 8" fill="#66BB6A" stroke="#2D8C3E" stroke-width="1.5"/>
  <path d="M30 14 Q30 -14 30 -20 Q32 -8 32 10" fill="#4CAF50" stroke="#2D8C3E" stroke-width="1.5"/>
  <path d="M32 16 Q38 -12 44 -18 Q38 -8 34 8" fill="#66BB6A" stroke="#2D8C3E" stroke-width="1.5"/>
  <path d="M30 18 Q40 -10 48 -15 Q42 -6 36 10" fill="#4CAF50" stroke="#2D8C3E" stroke-width="1.5"/>
  <!-- Carrot body (rounder tip) -->
  <path d="M30 108 Q22 85 18 60 Q15 38 22 22 Q26 15 30 14 Q34 15 38 22 Q45 38 42 60 Q38 85 30 108Z" fill="#FF8C42" stroke="#2D2D2D" stroke-width="2.5"/>
  <!-- Rounded tip -->
  <ellipse cx="30" cy="108" rx="4" ry="3" fill="#E87830" stroke="#2D2D2D" stroke-width="2"/>
  <!-- Carrot stripes -->
  <path d="M22 40 Q30 36 38 40" stroke="#E87830" stroke-width="2" stroke-linecap="round" opacity="0.6"/>
  <path d="M20 55 Q30 50 40 55" stroke="#E87830" stroke-width="2" stroke-linecap="round" opacity="0.6"/>
  <path d="M23 70 Q30 66 37 70" stroke="#E87830" stroke-width="2" stroke-linecap="round" opacity="0.6"/>
  <path d="M26 85 Q30 82 34 85" stroke="#E87830" stroke-width="2" stroke-linecap="round" opacity="0.6"/>
  <!-- Shine -->
  <path d="M25 35 Q27 26 30 22" stroke="white" stroke-width="2.5" stroke-linecap="round" opacity="0.5"/>
</svg>
