<svg xmlns="http://www.w3.org/2000/svg" viewBox="0 0 80 100" fill="none">
  <!-- Body -->
  <ellipse cx="40" cy="65" rx="24" ry="26" fill="#9E9E9E" stroke="#2D2D2D" stroke-width="2.5"/>
  <!-- Belly -->
  <ellipse cx="40" cy="70" rx="15" ry="16" fill="#BDBDBD"/>
  <!-- Ears (long) -->
  <path d="M26 38 Q16 10 26 4 Q30 2 32 12 Q34 24 30 38" fill="#9E9E9E" stroke="#2D2D2D" stroke-width="2"/>
  <path d="M28 34 Q22 14 28 8 Q30 6 31 14 Q32 22 29 34" fill="#C4956A"/>
  <path d="M54 38 Q64 10 54 4 Q50 2 48 12 Q46 24 50 38" fill="#9E9E9E" stroke="#2D2D2D" stroke-width="2"/>
  <path d="M52 34 Q58 14 52 8 Q50 6 49 14 Q48 22 51 34" fill="#C4956A"/>
  <!-- Head -->
  <ellipse cx="40" cy="42" rx="17" ry="19" fill="#9E9E9E" stroke="#2D2D2D" stroke-width="2.5"/>
  <!-- Snout -->
  <ellipse cx="40" cy="52" rx="11" ry="7" fill="#BDBDBD" stroke="#2D2D2D" stroke-width="2"/>
  <!-- Nostrils -->
  <circle cx="36" cy="52" r="2" fill="#757575"/>
  <circle cx="44" cy="52" r="2" fill="#757575"/>
  <!-- Eyes -->
  <ellipse cx="33" cy="40" rx="3.5" ry="4.5" fill="#2D2D2D"/>
  <ellipse cx="32" cy="39" rx="1.5" ry="2" fill="white"/>
  <ellipse cx="47" cy="40" rx="3.5" ry="4.5" fill="#2D2D2D"/>
  <ellipse cx="46" cy="39" rx="1.5" ry="2" fill="white"/>
  <!-- Feet -->
  <ellipse cx="32" cy="90" rx="9" ry="5" fill="#757575" stroke="#2D2D2D" stroke-width="2"/>
  <ellipse cx="48" cy="90" rx="9" ry="5" fill="#757575" stroke="#2D2D2D" stroke-width="2"/>
</svg>
