<svg xmlns="http://www.w3.org/2000/svg" viewBox="0 0 80 100" fill="none">
  <!-- Body -->
  <ellipse cx="40" cy="65" rx="24" ry="26" fill="#C4956A" stroke="#2D2D2D" stroke-width="2.5"/>
  <!-- Belly -->
  <ellipse cx="40" cy="70" rx="15" ry="16" fill="#D4A87A"/>
  <!-- Ears -->
  <path d="M28 40 Q22 22 28 16 Q32 12 34 20 Q36 28 32 40" fill="#C4956A" stroke="#2D2D2D" stroke-width="2"/>
  <path d="M52 40 Q58 22 52 16 Q48 12 46 20 Q44 28 48 40" fill="#C4956A" stroke="#2D2D2D" stroke-width="2"/>
  <!-- Head -->
  <ellipse cx="40" cy="42" rx="17" ry="19" fill="#C4956A" stroke="#2D2D2D" stroke-width="2.5"/>
  <!-- Mane tuft -->
  <path d="M34 24 Q38 18 42 22 Q46 18 48 24" fill="#8B5E3C" stroke="#2D2D2D" stroke-width="1.5"/>
  <!-- Snout -->
  <ellipse cx="40" cy="52" rx="10" ry="7" fill="#D4A87A" stroke="#2D2D2D" stroke-width="2"/>
  <!-- Nostrils -->
  <circle cx="36" cy="52" r="2" fill="#8B5E3C"/>
  <circle cx="44" cy="52" r="2" fill="#8B5E3C"/>
  <!-- Eyes -->
  <ellipse cx="33" cy="40" rx="3.5" ry="4.5" fill="#2D2D2D"/>
  <ellipse cx="32" cy="39" rx="1.5" ry="2" fill="white"/>
  <ellipse cx="47" cy="40" rx="3.5" ry="4.5" fill="#2D2D2D"/>
  <ellipse cx="46" cy="39" rx="1.5" ry="2" fill="white"/>
  <!-- Feet -->
  <ellipse cx="32" cy="90" rx="9" ry="5" fill="#8B5E3C" stroke="#2D2D2D" stroke-width="2"/>
  <ellipse cx="48" cy="90" rx="9" ry="5" fill="#8B5E3C" stroke="#2D2D2D" stroke-width="2"/>
</svg>
