<svg xmlns="http://www.w3.org/2000/svg" viewBox="0 0 200 240" fill="none">
  <!-- Shadow -->
  <ellipse cx="100" cy="232" rx="45" ry="7" fill="#00000018"/>
  <!-- Body -->
  <ellipse cx="100" cy="175" rx="52" ry="52" fill="#C4956A" stroke="#2D2D2D" stroke-width="3"/>
  <!-- Belly -->
  <ellipse cx="100" cy="185" rx="35" ry="32" fill="#D4A87A"/>
  <!-- Mane -->
  <path d="M88 80 Q82 60 88 45 Q92 38 96 45 Q98 55 96 70" fill="#8B5E3C" stroke="#2D2D2D" stroke-width="2"/>
  <path d="M96 75 Q90 55 96 40 Q100 32 104 40 Q106 52 104 68" fill="#6D4C31" stroke="#2D2D2D" stroke-width="2"/>
  <path d="M104 78 Q98 58 104 44 Q108 38 112 44 Q113 56 110 72" fill="#8B5E3C" stroke="#2D2D2D" stroke-width="2"/>
  <!-- Head -->
  <ellipse cx="100" cy="110" rx="35" ry="38" fill="#C4956A" stroke="#2D2D2D" stroke-width="3"/>
  <!-- Snout -->
  <ellipse cx="100" cy="132" rx="22" ry="16" fill="#D4A87A" stroke="#2D2D2D" stroke-width="2.5"/>
  <!-- Ears -->
  <path d="M72 82 Q65 58 72 48 Q78 42 82 50 Q85 60 80 80" fill="#C4956A" stroke="#2D2D2D" stroke-width="2.5"/>
  <path d="M75 78 Q70 60 75 52 Q78 48 80 54 Q82 62 79 76" fill="#D4A87A"/>
  <path d="M128 82 Q135 58 128 48 Q122 42 118 50 Q115 60 120 80" fill="#C4956A" stroke="#2D2D2D" stroke-width="2.5"/>
  <path d="M125 78 Q130 60 125 52 Q122 48 120 54 Q118 62 121 76" fill="#D4A87A"/>
  <!-- Eyes -->
  <ellipse cx="84" cy="106" rx="7" ry="8" fill="#2D2D2D"/>
  <ellipse cx="116" cy="106" rx="7" ry="8" fill="#2D2D2D"/>
  <circle cx="82" cy="103" r="2.5" fill="white"/>
  <circle cx="114" cy="103" r="2.5" fill="white"/>
  <!-- Nostrils -->
  <ellipse cx="90" cy="134" rx="4" ry="3" fill="#A67B55"/>
  <ellipse cx="110" cy="134" rx="4" ry="3" fill="#A67B55"/>
  <!-- Smile -->
  <path d="M88 140 Q100 148 112 140" stroke="#2D2D2D" stroke-width="2" fill="none" stroke-linecap="round"/>
  <!-- Hooves -->
  <rect x="68" y="218" width="20" height="12" rx="6" fill="#6D4C31" stroke="#2D2D2D" stroke-width="2.5"/>
  <rect x="112" y="218" width="20" height="12" rx="6" fill="#6D4C31" stroke="#2D2D2D" stroke-width="2.5"/>
  <!-- Arms -->
  <ellipse cx="56" cy="168" rx="10" ry="14" fill="#C4956A" stroke="#2D2D2D" stroke-width="2.5" transform="rotate(-15 56 168)"/>
  <ellipse cx="144" cy="168" rx="10" ry="14" fill="#C4956A" stroke="#2D2D2D" stroke-width="2.5" transform="rotate(15 144 168)"/>
</svg>
