<svg xmlns="http://www.w3.org/2000/svg" viewBox="0 0 80 100" fill="none">
  <!-- Body -->
  <ellipse cx="40" cy="65" rx="26" ry="26" fill="#FFB6C1" stroke="#2D2D2D" stroke-width="2.5"/>
  <!-- Belly -->
  <ellipse cx="40" cy="70" rx="17" ry="16" fill="#FFC8D1"/>
  <!-- Ears -->
  <path d="M26 38 Q20 22 26 16 Q30 12 32 20 Q34 28 30 38" fill="#FFB6C1" stroke="#2D2D2D" stroke-width="2"/>
  <path d="M28 34 Q24 24 28 18 Q30 16 31 22 Q32 26 29 34" fill="#FF9AAF"/>
  <path d="M54 38 Q60 22 54 16 Q50 12 48 20 Q46 28 50 38" fill="#FFB6C1" stroke="#2D2D2D" stroke-width="2"/>
  <path d="M52 34 Q56 24 52 18 Q50 16 49 22 Q48 26 51 34" fill="#FF9AAF"/>
  <!-- Head -->
  <circle cx="40" cy="42" r="18" fill="#FFB6C1" stroke="#2D2D2D" stroke-width="2.5"/>
  <!-- Snout -->
  <ellipse cx="40" cy="50" rx="10" ry="7" fill="#FF9AAF" stroke="#2D2D2D" stroke-width="2"/>
  <!-- Nostrils -->
  <ellipse cx="36" cy="50" rx="2.5" ry="3" fill="#E87B95"/>
  <ellipse cx="44" cy="50" rx="2.5" ry="3" fill="#E87B95"/>
  <!-- Eyes -->
  <ellipse cx="33" cy="38" rx="3.5" ry="4.5" fill="#2D2D2D"/>
  <ellipse cx="32" cy="37" rx="1.5" ry="2" fill="white"/>
  <ellipse cx="47" cy="38" rx="3.5" ry="4.5" fill="#2D2D2D"/>
  <ellipse cx="46" cy="37" rx="1.5" ry="2" fill="white"/>
  <!-- Cheeks -->
  <circle cx="28" cy="46" r="4" fill="#FF9AAF" opacity="0.4"/>
  <circle cx="52" cy="46" r="4" fill="#FF9AAF" opacity="0.4"/>
  <!-- Feet -->
  <ellipse cx="32" cy="90" rx="9" ry="5" fill="#FF9AAF" stroke="#2D2D2D" stroke-width="2"/>
  <ellipse cx="48" cy="90" rx="9" ry="5" fill="#FF9AAF" stroke="#2D2D2D" stroke-width="2"/>
</svg>
